# xmcd CD database file
#
# Track frame offsets:
#	150
#	15888
#	29514
#	44958
#	58836
#	71083
#	84698
#	99550
#	113370
#	125977
#	139146
#	153661
#	167787
#	183120
#	206238
#	220814
#	234433
#	256387
#	270150
#	283270
#
# Disc length: 3967 seconds
#
# Revision: 2
# Processed by: cddbd v1.5.2PL0 Copyright (c) Steve Scherf et al.
# Submitted via: CDex 1.51
#
DISCID=2d0f7d14
DTITLE=Coleman Hawkins - Masterpieces - Vol.18  {1929-1945}
DYEAR=1997
DGENRE=Jazz
TTITLE0=One Hour   [1929]
TTITLE1=Jamaica Shout   [1933]
TTITLE2=Heartbreak Blues   [1933]
TTITLE3=Honeysuckle Rose   [1934]
TTITLE4=Netcha's Dream   [1935]
TTITLE5=Crazy Rhythm   [1937]
TTITLE6=Out Of Nowhere   [1937]
TTITLE7=Body And Soul   [1939]
TTITLE8=My Blue Heaven   [1940]
TTITLE9=Dedication   [1940]
TTITLE10=Feeding The Bean   [1941]
TTITLE11=My Ideal   [1944]
TTITLE12=How Deep Is The Ocean   [1943]
TTITLE13=The Man I Love   [1943]
TTITLE14=I'm In The Mood For Love   [1944]
TTITLE15=Rainbow Mist   [1944]
TTITLE16=Don't Blame Me   [1944]
TTITLE17=On The Sunny Side Of The Street   [1944]
TTITLE18=Stuffy    [1945]
TTITLE19=I'm Thru With Love   [1945]
EXTD=YEAR: 1997
EXTT0=
EXTT1=
EXTT2=
EXTT3=
EXTT4=
EXTT5=
EXTT6=
EXTT7=
EXTT8=
EXTT9=
EXTT10=
EXTT11=
EXTT12=
EXTT13=
EXTT14=
EXTT15=
EXTT16=
EXTT17=
EXTT18=
EXTT19=
PLAYORDER=
